{"title":"Narcos S02E04 720p WEBRip HEVC 2CH x265","uid":15736157,"size":434835192,"categoryP":"video","categoryS":"hd___tv_shows","magnet":"?xt=urn:btih:5cadc78ae3bea78d1f405a6d82de69d3039637b0&amp;dn=Narcos+S02E04+720p+WEBRip+HEVC+2CH+x265&amp;tr=udp%3A%2F%2Ftracker.leechers-paradise.org%3A6969&amp;tr=udp%3A%2F%2Fzer0day.ch%3A1337&amp;tr=udp%3A%2F%2Fopen.demonii.com%3A1337&amp;tr=udp%3A%2F%2Ftracker.coppersurfer.tk%3A6969&amp;tr=udp%3A%2F%2Fexodus.desync.com%3A6969","seeders":1,"leechers":0,"uploader":"nayhtut","files":1,"time":1472841936,"description":"Source:  Narcos S02E04 720p WEBRip x264-SKGTV (1.97 GB)\r\n \r\n\r\n__--__--__--__--__--__--__--__--__--__--__--__--__--\r\n\r\n\r\nComplete name                            : Narcos.S02E04.720p.WEBRip.HEVC.2CH.x265.mkv\r\nFormat                                   : Matroska\r\nFormat version                           : Version 4 / Version 2\r\nFile size                                : 415 MiB\r\nDuration                                 : 55mn 58s\r\nOverall bit rate                         : 1 036 Kbps\r\nWriting application                      : Lavf57.25.100\r\nWriting library                          : Lavf57.25.100\r\n\r\nVideo\r\n\r\nID                                       : 1\r\nFormat                                   : V_MPEGH/ISO/HEVC\r\nCodec ID                                 : V_MPEGH/ISO/HEVC\r\nDuration                                 : 55mn 58s\r\nBit rate                                 : 823 Kbps\r\nWidth                                    : 1 280 pixels\r\nHeight                                   : 720 pixels\r\nDisplay aspect ratio                     : 16:9\r\nFrame rate                               : 25.000 fps\r\nBits/(Pixel*Frame)                       : 0.036\r\nStream size                              : 330 MiB (79%)\r\nWriting library                          : Lavc57.48.101 libx265\r\nLanguage                                 : English\r\nDefault                                  : Yes\r\nForced                                   : No\r\nDURATION                                 : 00:55:58.891000000\r\nNUMBER_OF_FRAMES                         : 80532\r\nNUMBER_OF_BYTES                          : 1631961099\r\n_STATISTICS_WRITING_APP                  : mkvmerge v8.9.0 ('Father Daughter') 32bit\r\n_STATISTICS_WRITING_DATE_UTC             : 2016-09-02 14:13:54\r\n_STATISTICS_TAGS                         : BPS DURATION NUMBER_OF_FRAMES NUMBER_OF_BYTES\r\n\r\nAudio\r\n\r\nID                                       : 2\r\nFormat                                   : AC-3\r\nFormat/Info                              : Audio Coding 3\r\nMode extension                           : CM (complete main)\r\nFormat settings, Endianness              : Big\r\nCodec ID                                 : A_AC3\r\nDuration                                 : 55mn 58s\r\nBit rate mode                            : Constant\r\nBit rate                                 : 192 Kbps\r\nChannel(s)                               : 2 channels\r\nChannel positions                        : Front: L R\r\nSampling rate                            : 48.0 KHz\r\nBit depth                                : 16 bits\r\nCompression mode                         : Lossy\r\nStream size                              : 76.9 MiB (19%)\r\nWriting library                          : Lavc57.24.102 ac3\r\nLanguage                                 : English\r\nDefault                                  : Yes\r\nForced                                   : No\r\nDURATION                                 : 00:55:58.943000000\r\nNUMBER_OF_FRAMES                         : 104965\r\nNUMBER_OF_BYTES                          : 268710400\r\n_STATISTICS_WRITING_APP                  : mkvmerge v8.9.0 ('Father Daughter') 32bit\r\n_STATISTICS_WRITING_DATE_UTC             : 2016-09-02 14:13:54\r\n_STATISTICS_TAGS                         : BPS DURATION NUMBER_OF_FRAMES NUMBER_OF_BYTES","torrent":{"xt":"urn:btih:5cadc78ae3bea78d1f405a6d82de69d3039637b0","amp;dn":"Narcos+S02E04+720p+WEBRip+HEVC+2CH+x265","amp;tr":["udp%3A%2F%2Ftracker.leechers-paradise.org%3A6969","udp%3A%2F%2Fzer0day.ch%3A1337","udp%3A%2F%2Fopen.demonii.com%3A1337","udp%3A%2F%2Ftracker.coppersurfer.tk%3A6969","udp%3A%2F%2Fexodus.desync.com%3A6969"],"infoHash":"5cadc78ae3bea78d1f405a6d82de69d3039637b0","infoHashBuffer":{"type":"Buffer","data":[92,173,199,138,227,190,167,141,31,64,90,109,130,222,105,211,3,150,55,176]},"announce":[],"urlList":[]}}